<svg width="271" height="262" viewBox="0 0 271 262" fill="none" xmlns="http://www.w3.org/2000/svg">
<g filter="url(#filter0_i_89_17)">
<g clip-path="url(#clip0_89_17)">
<g filter="url(#filter1_ddddd_89_17)">
<path fill-rule="evenodd" clip-rule="evenodd" d="M96.471 164.59C89.5767 163.039 82.3554 160.183 76.3614 156.635C71.7117 153.943 62.8995 145.824 60.331 141.948C59.7606 141.094 58.7801 139.667 58.1696 138.726C56.2918 135.914 53.0697 129.264 51.969 125.918C50.6616 121.882 49.8877 117.966 49.3173 112.499C48.6636 106.055 49.8476 97.4064 52.4161 89.8213C53.6802 86.0257 57.0257 79.6647 59.0669 77.0932C61.145 74.4415 61.2283 74.0345 60.698 70.8124C59.8007 65.4289 57.3525 57.554 55.6382 54.4152C54.374 52.1705 54.2938 50.3359 55.3946 49.7654C57.5961 48.5814 63.0228 49.6822 68.6499 52.4141C73.833 54.9455 75.1774 55.8427 78.1158 58.6979C79.5434 60.0423 80.7675 61.1461 80.8477 61.1461C80.9278 61.1461 81.0111 60.8594 80.971 60.4524C80.9278 59.9621 81.7049 59.3485 83.5795 58.4112C91.4113 54.5354 102.588 52.7008 111.724 53.8016C116.864 54.4552 122.495 55.7996 125.593 57.1871C126.817 57.7174 128.612 58.5345 129.552 58.9415C131.51 59.7987 131.674 60.4524 130.366 61.9601C129.469 62.9807 129.469 62.9807 130.406 62.1636C130.98 61.7165 132.408 60.329 133.632 59.0248C138.281 54.1685 145.866 50.3359 151.74 49.8857C157.33 49.4386 158.838 50.9063 156.637 54.7821C154.515 58.5746 151.293 69.5051 151.293 73.054C151.293 73.7077 152.067 75.2987 153.168 76.9298C155.656 80.562 159.085 87.4965 160.429 91.4925C163.978 102.303 164.101 112.743 160.836 124.167C159.572 128.49 155.696 136.565 153.088 140.317C147.417 148.313 139.505 155.084 130.49 159.653C127.431 161.204 119.189 163.896 115.357 164.59C111.034 165.363 99.9367 165.363 96.471 164.59ZM101.611 160.51C100.997 160.387 99.2029 160.1 97.652 159.817C94.5933 159.326 87.6989 157.205 87.0483 156.594C86.8448 156.391 86.3545 156.228 85.9475 156.228C84.4768 156.228 75.4641 150.884 72.9759 148.516C65.5511 141.501 62.8594 138.156 59.8408 132.242C57.8428 128.366 56.0883 123.553 54.7409 118.497C53.6001 114.05 53.6802 102.586 54.9043 97.8966C56.0483 93.5306 57.9229 88.107 58.6999 86.8027C59.0669 86.2724 59.8809 84.8016 60.5345 83.4973C61.1882 82.1931 61.8388 81.1725 62.0022 81.1725C62.1255 81.1725 62.3691 81.8663 62.4925 82.7234C62.736 84.151 62.8995 84.3545 64.0835 84.5179C66.2449 84.8448 66.8554 84.2713 66.8554 81.8262C66.8554 80.6422 66.6519 78.6441 66.4484 77.4601C66.2449 76.236 65.878 73.8711 65.5912 72.1999C64.7772 66.9367 63.3897 61.2664 61.8388 57.1871C61.3917 56.0062 61.105 54.9023 61.2684 54.7821C61.5551 54.4953 65.3477 55.9229 68.4063 57.4738C72.0786 59.3084 76.4416 63.0609 78.7664 66.4464C81.2146 69.9553 82.8056 70.8124 84.1099 69.3848C85.1305 68.2409 84.927 66.4464 83.5394 64.8554C82.4788 63.5912 82.3986 63.3877 83.0492 63.2644C83.4161 63.1842 84.967 62.6539 86.4347 62.0835C93.2489 59.3917 98.9994 58.331 106.261 58.331C113.359 58.2878 117.558 59.1882 127.471 62.734C129.592 63.471 129.592 63.471 128.408 65.2655C127.758 66.283 127.228 67.3436 127.228 67.7106C127.228 68.8946 128.288 69.7518 129.796 69.7518C131.143 69.7117 131.387 69.5051 132.978 67.1802C136.607 61.7967 142.154 57.5139 147.908 55.6392C149.579 55.0657 151.09 54.6988 151.17 54.8222C151.253 54.9023 151.13 55.3525 150.883 55.7996C149.742 58.0042 147.214 67.7106 146.357 73.424C146.113 75.0952 145.746 77.3399 145.54 78.3975C145.052 80.8857 145.052 83.2106 145.54 83.9876C145.91 84.558 148.558 84.8448 149.008 84.3545C149.172 84.2312 149.415 83.3339 149.579 82.3133C149.866 80.562 149.866 80.562 151.537 83.4172C154.148 87.8634 154.759 89.2077 156.066 93.6138C158.144 100.425 158.348 101.772 158.308 108.707C158.308 115.518 157.981 117.516 155.903 124.124C152.557 134.647 144.726 145.01 135.303 151.371C132.161 153.493 127.715 155.901 126.003 156.391C125.43 156.554 124.412 156.961 123.759 157.245C121.721 158.142 118.659 159.083 115.724 159.693C112.785 160.307 103.526 160.837 101.611 160.51ZM100.387 139.91C93.8995 138.89 86.8849 135.588 81.6216 131.018C79.5002 129.143 79.0932 128.613 79.0932 127.509C79.0932 124.37 81.5013 124.37 84.8036 127.429C89.7802 131.999 96.7979 134.894 103.976 135.301C113.032 135.751 120.984 133.059 127.184 127.346C128.899 125.758 129.836 125.227 130.733 125.227C132.244 125.227 132.938 125.878 132.938 127.389C132.938 128.326 132.364 129.1 130.366 130.978C128.979 132.282 127.675 133.343 127.551 133.343C127.388 133.343 126.207 134.077 124.9 134.934C122.414 136.565 118.375 138.239 114.459 139.257C111.521 140.034 103.486 140.401 100.387 139.91ZM85.4974 115.191C80.5609 113.03 78.603 110.255 77.9925 104.587C77.7489 102.099 77.7489 102.099 74.2801 100.508C70.4043 98.7538 69.467 97.7332 70.0775 96.1021C70.7713 94.2675 72.1187 94.3076 76.5248 96.4289C78.7263 97.4896 80.8878 98.5071 81.3379 98.7137C83.0924 99.4475 91.3712 101.936 95.9407 103.117C102.262 104.748 103.446 105.768 101.364 107.85C100.507 108.707 100.223 108.747 98.6325 108.46C97.6119 108.257 96.7146 108.093 96.5913 108.093C96.471 108.093 96.1442 108.747 95.8174 109.604C95.1236 111.642 93.5727 113.273 91.2078 114.457C89.4132 115.355 86.6814 115.721 85.4974 115.191ZM122.618 115.151C122.331 115.028 121.394 114.537 120.497 114.13C118.946 113.397 116.701 110.665 116.05 108.787C115.887 108.257 115.52 108.136 114.459 108.34C113.032 108.624 113.072 108.584 112.051 108.543C111.194 108.46 110.093 107.4 110.093 106.666C110.093 105.238 111.604 104.381 116.214 103.2C118.782 102.546 122.251 101.526 123.962 100.955C125.637 100.385 127.918 99.611 129.062 99.244C130.163 98.8771 133.101 97.653 135.546 96.5091C139.709 94.6344 140.076 94.5111 141.053 95.0815C142.361 95.8153 142.604 97.2861 141.624 98.3468C141.217 98.7939 139.462 99.8145 137.708 100.628C134.282 102.179 134.406 102.056 133.955 105.972C133.468 110.255 130.693 113.927 127.184 114.948C125.43 115.478 123.392 115.558 122.618 115.151Z" fill="white"/>
</g>
</g>
<g filter="url(#filter2_ddddd_89_17)">
<path d="M22.7467 211.153H22.1681C21.236 212.503 20.0627 213.516 18.6484 214.191C17.2663 214.866 15.7394 215.203 14.068 215.203C12.6858 215.203 11.4161 214.978 10.259 214.528C9.13396 214.046 8.16966 213.387 7.36607 212.551C6.56249 211.716 5.93569 210.703 5.48568 209.514C5.06782 208.324 4.85888 207.007 4.85888 205.56C4.85888 203.342 5.18032 201.285 5.82319 199.389C6.4982 197.492 7.43036 195.853 8.61967 194.471C9.84112 193.056 11.2876 191.947 12.959 191.144C14.6626 190.34 16.527 189.938 18.552 189.938C20.4485 189.938 22.0074 190.356 23.2289 191.192C24.4825 191.996 25.3021 193.056 25.6878 194.374H26.2664L27.0861 190.613H30.8469L24.5307 220.41C24.2735 221.503 23.7271 222.403 22.8914 223.11C22.0556 223.818 21.0913 224.171 19.9984 224.171H5.43747V220.7H19.3716C20.2717 220.7 20.8181 220.218 21.011 219.253L22.7467 211.153ZM14.8876 211.635C16.3662 211.635 17.7163 211.314 18.9377 210.671C20.1592 209.996 21.2038 209.128 22.0717 208.067C22.9717 206.974 23.6628 205.737 24.1449 204.355C24.6271 202.973 24.8682 201.574 24.8682 200.16C24.8682 198.167 24.3057 196.56 23.1806 195.339C22.0556 194.117 20.5449 193.506 18.6484 193.506C17.1377 193.506 15.7716 193.828 14.5501 194.471C13.3287 195.113 12.284 195.981 11.4161 197.074C10.5804 198.135 9.92148 199.373 9.43932 200.787C8.98932 202.201 8.76431 203.664 8.76431 205.174C8.76431 207.167 9.27861 208.742 10.3072 209.899C11.3679 211.057 12.8947 211.635 14.8876 211.635ZM56.3674 210.478H55.7888C54.9209 212.021 53.812 213.194 52.4619 213.998C51.1119 214.801 49.4726 215.203 47.544 215.203C45.4225 215.203 43.7028 214.608 42.385 213.419C41.0671 212.198 40.4081 210.398 40.4081 208.019C40.4081 207.537 40.4242 207.055 40.4564 206.573C40.5206 206.058 40.6331 205.496 40.7939 204.885L43.9761 190.613H47.7368L44.6511 204.403C44.4261 205.399 44.3136 206.332 44.3136 207.199C44.3136 210.157 45.9047 211.635 49.0869 211.635C51.3048 211.635 53.1852 210.864 54.728 209.321C56.3031 207.746 57.3799 205.657 57.9585 203.053L60.7549 190.613H64.5157L60.1281 210.478C60.0639 210.735 60.096 210.944 60.2246 211.105C60.3531 211.266 60.5299 211.346 60.7549 211.346C60.9799 211.346 61.205 211.266 61.43 211.105L63.5032 209.61L65.5282 212.407L63.1175 214.239C62.7318 214.56 62.2496 214.801 61.671 214.962C61.1246 215.123 60.5621 215.203 59.9835 215.203C59.5013 215.203 59.0353 215.139 58.5853 215.01C58.1353 214.882 57.7335 214.673 57.3799 214.383C57.0263 214.094 56.737 213.741 56.512 213.323C56.3191 212.873 56.2227 212.342 56.2227 211.732C56.2227 211.571 56.2227 211.41 56.2227 211.25C56.2549 211.089 56.287 210.928 56.3191 210.767L56.3674 210.478ZM88.4451 183.478C88.4451 182.545 88.7666 181.758 89.4094 181.115C90.0844 180.44 90.888 180.103 91.8202 180.103C92.7524 180.103 93.5399 180.44 94.1827 181.115C94.8577 181.758 95.1953 182.545 95.1953 183.478C95.1953 184.41 94.8577 185.213 94.1827 185.888C93.5399 186.531 92.7524 186.853 91.8202 186.853C90.888 186.853 90.0844 186.531 89.4094 185.888C88.7666 185.213 88.4451 184.41 88.4451 183.478ZM87.6737 194.808C87.738 194.487 87.6898 194.213 87.529 193.988C87.4005 193.731 87.1594 193.603 86.8058 193.603C86.5487 193.603 86.3076 193.667 86.0826 193.796L80.4414 197.653L78.5128 194.808L84.2022 190.951C85.1986 190.276 86.2754 189.938 87.4326 189.938C88.5255 189.938 89.4737 190.26 90.2773 190.903C91.0809 191.546 91.4827 192.542 91.4827 193.892C91.4827 194.406 91.4184 194.921 91.2898 195.435L87.7219 210.333C87.6255 210.719 87.6576 211.025 87.8183 211.25C88.0112 211.475 88.2523 211.587 88.5416 211.587C88.7666 211.587 89.0076 211.507 89.2648 211.346L94.8095 207.585L96.7381 210.43L91.1934 214.191C90.1648 214.866 89.088 215.203 87.963 215.203C86.8701 215.203 85.9219 214.882 85.1183 214.239C84.3147 213.596 83.9129 212.6 83.9129 211.25C83.9129 210.735 83.9772 210.221 84.1058 209.707L87.6737 194.808ZM123.56 184.924C123.657 184.538 123.609 184.249 123.416 184.056C123.255 183.831 123.014 183.719 122.693 183.719C122.468 183.719 122.227 183.799 121.969 183.96L116.328 187.817L114.4 184.972L120.089 181.115C120.603 180.761 121.134 180.504 121.68 180.344C122.227 180.183 122.773 180.103 123.319 180.103C124.38 180.103 125.312 180.424 126.116 181.067C126.952 181.71 127.369 182.706 127.369 184.056C127.369 184.603 127.305 185.117 127.177 185.599L121.343 210.333C121.246 210.719 121.278 211.025 121.439 211.25C121.632 211.475 121.873 211.587 122.162 211.587C122.387 211.587 122.628 211.507 122.885 211.346L128.43 207.585L130.359 210.43L124.814 214.191C123.785 214.866 122.709 215.203 121.584 215.203C120.523 215.203 119.575 214.882 118.739 214.239C117.935 213.596 117.534 212.6 117.534 211.25C117.534 210.703 117.598 210.189 117.726 209.707L123.56 184.924ZM148.068 190.613H156.361L158.579 180.103H162.34L160.122 190.613H168.608V194.085H159.351L155.928 210.333C155.831 210.719 155.863 211.025 156.024 211.25C156.217 211.475 156.458 211.587 156.747 211.587C156.972 211.587 157.213 211.507 157.47 211.346L163.883 207.007L165.812 209.851L159.399 214.191C158.37 214.866 157.31 215.203 156.217 215.203C155.092 215.203 154.127 214.866 153.324 214.191C152.52 213.516 152.119 212.503 152.119 211.153C152.119 210.928 152.135 210.703 152.167 210.478C152.199 210.221 152.247 209.964 152.311 209.707L155.59 194.085H148.068V190.613ZM188.198 204.403C187.973 205.399 187.861 206.332 187.861 207.199C187.861 210.157 189.452 211.635 192.634 211.635C194.852 211.635 196.748 210.864 198.323 209.321C199.898 207.746 200.959 205.657 201.506 203.053L204.109 190.613H207.87L201.554 220.41C201.329 221.503 200.798 222.403 199.963 223.11C199.127 223.818 198.163 224.171 197.07 224.171H184.003V220.7H196.443C197.311 220.7 197.841 220.218 198.034 219.253L199.866 210.767H199.288C198.323 212.214 197.166 213.323 195.816 214.094C194.498 214.833 192.923 215.203 191.091 215.203C188.937 215.203 187.218 214.56 185.932 213.275C184.646 211.989 184.003 210.173 184.003 207.826C184.003 206.862 184.116 205.882 184.341 204.885L186.511 194.567C186.575 194.246 186.527 194.005 186.366 193.844C186.237 193.651 186.061 193.555 185.836 193.555C185.643 193.555 185.434 193.635 185.209 193.796L182.75 195.483L180.821 192.638L183.328 190.951C184.325 190.276 185.337 189.938 186.366 189.938C187.427 189.938 188.343 190.292 189.114 190.999C189.886 191.706 190.271 192.687 190.271 193.94C190.271 194.133 190.255 194.326 190.223 194.519C190.223 194.68 190.191 194.905 190.127 195.194L188.198 204.403Z" fill="white"/>
</g>
</g>
<defs>
<filter id="filter0_i_89_17" x="2" y="0" width="208.743" height="228.171" filterUnits="userSpaceOnUse" color-interpolation-filters="sRGB">
<feFlood flood-opacity="0" result="BackgroundImageFix"/>
<feBlend mode="normal" in="SourceGraphic" in2="BackgroundImageFix" result="shape"/>
<feColorMatrix in="SourceAlpha" type="matrix" values="0 0 0 0 0 0 0 0 0 0 0 0 0 0 0 0 0 0 127 0" result="hardAlpha"/>
<feOffset dy="4"/>
<feGaussianBlur stdDeviation="2"/>
<feComposite in2="hardAlpha" operator="arithmetic" k2="-1" k3="1"/>
<feColorMatrix type="matrix" values="0 0 0 0 0.517647 0 0 0 0 0.47451 0 0 0 0 0.588235 0 0 0 1 0"/>
<feBlend mode="normal" in2="shape" result="effect1_innerShadow_89_17"/>
</filter>
<filter id="filter1_ddddd_89_17" x="46.1403" y="45.2932" width="163.052" height="156.877" filterUnits="userSpaceOnUse" color-interpolation-filters="sRGB">
<feFlood flood-opacity="0" result="BackgroundImageFix"/>
<feColorMatrix in="SourceAlpha" type="matrix" values="0 0 0 0 0 0 0 0 0 0 0 0 0 0 0 0 0 0 127 0" result="hardAlpha"/>
<feOffset/>
<feColorMatrix type="matrix" values="0 0 0 0 0.517647 0 0 0 0 0.47451 0 0 0 0 0.588235 0 0 0 0.2 0"/>
<feBlend mode="normal" in2="BackgroundImageFix" result="effect1_dropShadow_89_17"/>
<feColorMatrix in="SourceAlpha" type="matrix" values="0 0 0 0 0 0 0 0 0 0 0 0 0 0 0 0 0 0 127 0" result="hardAlpha"/>
<feOffset dx="2" dy="1"/>
<feGaussianBlur stdDeviation="2.5"/>
<feColorMatrix type="matrix" values="0 0 0 0 0.517647 0 0 0 0 0.47451 0 0 0 0 0.588235 0 0 0 0.2 0"/>
<feBlend mode="normal" in2="effect1_dropShadow_89_17" result="effect2_dropShadow_89_17"/>
<feColorMatrix in="SourceAlpha" type="matrix" values="0 0 0 0 0 0 0 0 0 0 0 0 0 0 0 0 0 0 127 0" result="hardAlpha"/>
<feOffset dx="8" dy="6"/>
<feGaussianBlur stdDeviation="5"/>
<feColorMatrix type="matrix" values="0 0 0 0 0.517647 0 0 0 0 0.47451 0 0 0 0 0.588235 0 0 0 0.17 0"/>
<feBlend mode="normal" in2="effect2_dropShadow_89_17" result="effect3_dropShadow_89_17"/>
<feColorMatrix in="SourceAlpha" type="matrix" values="0 0 0 0 0 0 0 0 0 0 0 0 0 0 0 0 0 0 127 0" result="hardAlpha"/>
<feOffset dx="18" dy="13"/>
<feGaussianBlur stdDeviation="6.5"/>
<feColorMatrix type="matrix" values="0 0 0 0 0.517647 0 0 0 0 0.47451 0 0 0 0 0.588235 0 0 0 0.1 0"/>
<feBlend mode="normal" in2="effect3_dropShadow_89_17" result="effect4_dropShadow_89_17"/>
<feColorMatrix in="SourceAlpha" type="matrix" values="0 0 0 0 0 0 0 0 0 0 0 0 0 0 0 0 0 0 127 0" result="hardAlpha"/>
<feOffset dx="31" dy="22"/>
<feGaussianBlur stdDeviation="7.5"/>
<feColorMatrix type="matrix" values="0 0 0 0 0.517647 0 0 0 0 0.47451 0 0 0 0 0.588235 0 0 0 0.03 0"/>
<feBlend mode="normal" in2="effect4_dropShadow_89_17" result="effect5_dropShadow_89_17"/>
<feBlend mode="normal" in="SourceGraphic" in2="effect5_dropShadow_89_17" result="shape"/>
</filter>
<filter id="filter2_ddddd_89_17" x="0.858887" y="173.103" width="270.011" height="88.0686" filterUnits="userSpaceOnUse" color-interpolation-filters="sRGB">
<feFlood flood-opacity="0" result="BackgroundImageFix"/>
<feColorMatrix in="SourceAlpha" type="matrix" values="0 0 0 0 0 0 0 0 0 0 0 0 0 0 0 0 0 0 127 0" result="hardAlpha"/>
<feOffset/>
<feColorMatrix type="matrix" values="0 0 0 0 0.517647 0 0 0 0 0.47451 0 0 0 0 0.588235 0 0 0 0.2 0"/>
<feBlend mode="normal" in2="BackgroundImageFix" result="effect1_dropShadow_89_17"/>
<feColorMatrix in="SourceAlpha" type="matrix" values="0 0 0 0 0 0 0 0 0 0 0 0 0 0 0 0 0 0 127 0" result="hardAlpha"/>
<feOffset dx="3" dy="1"/>
<feGaussianBlur stdDeviation="3.5"/>
<feColorMatrix type="matrix" values="0 0 0 0 0.517647 0 0 0 0 0.47451 0 0 0 0 0.588235 0 0 0 0.2 0"/>
<feBlend mode="normal" in2="effect1_dropShadow_89_17" result="effect2_dropShadow_89_17"/>
<feColorMatrix in="SourceAlpha" type="matrix" values="0 0 0 0 0 0 0 0 0 0 0 0 0 0 0 0 0 0 127 0" result="hardAlpha"/>
<feOffset dx="11" dy="5"/>
<feGaussianBlur stdDeviation="6"/>
<feColorMatrix type="matrix" values="0 0 0 0 0.517647 0 0 0 0 0.47451 0 0 0 0 0.588235 0 0 0 0.17 0"/>
<feBlend mode="normal" in2="effect2_dropShadow_89_17" result="effect3_dropShadow_89_17"/>
<feColorMatrix in="SourceAlpha" type="matrix" values="0 0 0 0 0 0 0 0 0 0 0 0 0 0 0 0 0 0 127 0" result="hardAlpha"/>
<feOffset dx="25" dy="10"/>
<feGaussianBlur stdDeviation="8"/>
<feColorMatrix type="matrix" values="0 0 0 0 0.517647 0 0 0 0 0.47451 0 0 0 0 0.588235 0 0 0 0.1 0"/>
<feBlend mode="normal" in2="effect3_dropShadow_89_17" result="effect4_dropShadow_89_17"/>
<feColorMatrix in="SourceAlpha" type="matrix" values="0 0 0 0 0 0 0 0 0 0 0 0 0 0 0 0 0 0 127 0" result="hardAlpha"/>
<feOffset dx="44" dy="18"/>
<feGaussianBlur stdDeviation="9.5"/>
<feColorMatrix type="matrix" values="0 0 0 0 0.517647 0 0 0 0 0.47451 0 0 0 0 0.588235 0 0 0 0.03 0"/>
<feBlend mode="normal" in2="effect4_dropShadow_89_17" result="effect5_dropShadow_89_17"/>
<feBlend mode="normal" in="SourceGraphic" in2="effect5_dropShadow_89_17" result="shape"/>
</filter>
<clipPath id="clip0_89_17">
<rect width="208.743" height="208.743" fill="white" transform="translate(2)"/>
</clipPath>
</defs>
</svg>
